<?xml version="1.0" encoding="UTF-8" standalone="no"?><!DOCTYPE svg PUBLIC "-//W3C//DTD SVG 1.1//EN" "http://www.w3.org/Graphics/SVG/1.1/DTD/svg11.dtd"><svg width="100%" height="100%" viewBox="0 0 2530 2084" version="1.1" xmlns="http://www.w3.org/2000/svg" xmlns:xlink="http://www.w3.org/1999/xlink" xml:space="preserve" xmlns:serif="http://www.serif.com/" style="fill-rule:evenodd;clip-rule:evenodd;stroke-linejoin:round;stroke-miterlimit:2;"><g id="Capa_2"><g id="Capa_1-2"><rect x="0" y="0" width="2529.917" height="2083.333" style="fill:#fff;"/><path d="M454.75,1613.292c-19.87,-10.493 -36.478,-26.25 -48,-45.542c-23.247,-40.74 -23.247,-90.885 0,-131.625c11.534,-19.282 28.139,-35.037 48,-45.542c39.491,-19.923 85.737,-21.793 126.708,-5.125c16.864,7.243 31.784,18.365 43.542,32.458l-36.708,33.917c-15.221,-18.558 -38.083,-29.222 -62.083,-28.958c-14.295,-0.249 -28.412,3.227 -40.958,10.083c-11.825,6.486 -21.556,16.216 -28.042,28.042c-13.436,25.612 -13.436,56.263 0,81.875c6.5,11.825 16.226,21.566 28.042,28.083c12.55,6.842 26.667,10.303 40.958,10.042c24.056,0.312 46.966,-10.452 62.083,-29.167l36.708,33.875c-11.705,14.328 -26.722,25.598 -43.75,32.833c-18.457,7.746 -38.319,11.591 -58.333,11.292c-23.748,0.288 -47.192,-5.401 -68.167,-16.542Z" style="fill:#2e2d2c;fill-rule:nonzero;"/><path d="M738.875,1439.833c12.284,-4.927 25.434,-7.336 38.667,-7.083l-0,50.833c-6.125,-0.458 -10.25,-0.708 -12.5,-0.708c-15.75,0 -28.097,4.417 -37.042,13.25c-8.944,8.833 -13.417,22.069 -13.417,39.708l0,89.625l-54.958,0l0,-189.875l52.625,0l0,25c6.754,-9.275 15.982,-16.466 26.625,-20.75Z" style="fill:#2e2d2c;fill-rule:nonzero;"/><path d="M993.542,1546.042l-143.542,0c2.285,11.327 8.875,21.339 18.375,27.917c10.563,7.07 23.088,10.642 35.792,10.208c8.961,0.163 17.876,-1.335 26.292,-4.417c7.976,-3.153 15.233,-7.887 21.333,-13.917l29.167,31.75c-17.917,20.5 -44.042,30.736 -78.375,30.708c-19.668,0.413 -39.154,-3.872 -56.833,-12.5c-15.771,-7.694 -29.006,-19.758 -38.125,-34.75c-17.756,-31.194 -17.756,-69.556 -0,-100.75c8.654,-14.794 21.249,-26.898 36.375,-34.958c31.979,-16.512 70.014,-16.714 102.167,-0.542c14.869,7.84 27.179,19.788 35.458,34.417c8.83,15.913 13.274,33.89 12.875,52.083c0.083,0.667 -0.25,5.583 -0.958,14.75Zm-128.833,-61.042c-8.67,7.413 -14.224,17.836 -15.542,29.167l93.542,0c-1.431,-11.189 -6.973,-21.456 -15.542,-28.792c-8.687,-7.249 -19.733,-11.074 -31.042,-10.75c-11.374,-0.418 -22.528,3.265 -31.417,10.375Z" style="fill:#2e2d2c;fill-rule:nonzero;"/><path d="M1222.583,1435.583l0,189.875l-52.208,0l0,-22.583c-7.183,8.171 -16.112,14.622 -26.125,18.875c-10.376,4.421 -21.555,6.648 -32.833,6.542c-25,-0 -44.764,-7.181 -59.292,-21.542c-14.528,-14.361 -21.819,-35.653 -21.875,-63.875l0,-107.292l55.042,0l0,99.167c0,30.556 12.833,45.833 38.5,45.833c11.949,0.503 23.546,-4.214 31.75,-12.917c8,-8.583 12,-21.347 12,-38.292l0,-93.792l55.042,0Z" style="fill:#2e2d2c;fill-rule:nonzero;"/><path d="M1534.958,1625.458l-47.458,-68.792l-52.792,0l0,68.792l-57.167,0l0,-247.042l106.958,0c19.616,-0.482 39.109,3.241 57.167,10.917c31.391,13.196 51.394,44.685 50,78.708c1.343,34.075 -19.117,65.47 -50.833,78l55.417,79.417l-61.292,0Zm-14.458,-189.333c-8.972,-7.417 -22.028,-11.125 -39.167,-11.125l-46.625,0l0,86.125l46.625,0c17.167,0 30.222,-3.764 39.167,-11.292c8.571,-8.377 13.409,-19.869 13.409,-31.854c0,-11.985 -4.837,-23.477 -13.409,-31.854Z" style="fill:#2e2d2c;fill-rule:nonzero;"/><path d="M1669.625,1615.75c-15.413,-7.882 -28.317,-19.921 -37.25,-34.75c-17.868,-31.238 -17.868,-69.721 0,-100.958c8.945,-14.819 21.846,-26.855 37.25,-34.75c33.844,-16.708 73.614,-16.708 107.458,0c15.323,7.947 28.158,19.975 37.083,34.75c17.81,31.254 17.81,69.705 -0,100.958c-8.913,14.785 -21.751,26.815 -37.083,34.75c-33.844,16.708 -73.614,16.708 -107.458,0Zm88.708,-46.917c18.049,-22.231 18.049,-54.352 0,-76.583c-9.014,-9.517 -21.691,-14.725 -34.792,-14.292c-13.132,-0.4 -25.834,4.799 -34.917,14.292c-18.321,22.127 -18.321,54.456 0,76.583c9.092,9.479 21.788,14.675 34.917,14.292c13.096,0.406 25.762,-4.797 34.792,-14.292Z" style="fill:#2e2d2c;fill-rule:nonzero;"/><path d="M1806.042,1686.167l14.792,-39.875c6.87,4.616 15.019,6.963 23.292,6.708c6.307,0.355 12.444,-2.177 16.667,-6.875c4.469,-5.981 6.603,-13.392 6,-20.833l0,-189.708l55.042,0l0,189.417c0,22.222 -6.292,39.694 -18.875,52.417c-12.583,12.722 -30.236,19.181 -52.958,19.375c-19.194,0 -33.847,-3.542 -43.958,-10.625Zm63.5,-285.875c-6.062,-5.656 -9.509,-13.584 -9.509,-21.875c0,-8.291 3.446,-16.219 9.509,-21.875c6.779,-6.031 15.642,-9.2 24.708,-8.833c8.987,-0.42 17.811,2.556 24.708,8.333c6.188,5.266 9.694,13.043 9.542,21.167c0.252,8.613 -3.229,16.927 -9.542,22.792c-6.72,6.146 -15.61,9.384 -24.708,9c-9.049,0.401 -17.91,-2.722 -24.708,-8.708Z" style="fill:#2e2d2c;fill-rule:nonzero;"/><path d="M2116.958,1453.75c15.806,13.889 23.694,35.014 23.667,63.375l0,108.333l-51.542,0l0,-23.625c-10.333,17.639 -29.625,26.458 -57.875,26.458c-13.041,0.318 -25.996,-2.213 -37.958,-7.417c-9.972,-4.306 -18.484,-11.414 -24.5,-20.458c-5.645,-8.848 -8.545,-19.173 -8.333,-29.667c-0.634,-16.317 6.847,-31.933 19.958,-41.667c13.278,-10.111 33.806,-15.167 61.583,-15.167l43.792,0c0.645,-10.399 -3.375,-20.564 -10.958,-27.708c-7.292,-6.5 -18.25,-9.708 -32.833,-9.708c-10.132,0.003 -20.201,1.606 -29.833,4.75c-9.037,2.759 -17.506,7.12 -25,12.875l-19.75,-38.458c11.332,-7.756 23.921,-13.493 37.208,-16.958c14.55,-4.008 29.575,-6.026 44.667,-6c29.389,0.028 51.958,7.042 67.708,21.042Zm-46.917,130.958c7.307,-4.359 12.821,-11.188 15.542,-19.25l0,-19.417l-37.792,0c-22.583,0 -33.875,7.417 -33.875,22.25c-0.19,6.594 2.944,12.862 8.333,16.667c6.717,4.461 14.698,6.639 22.75,6.208c8.781,0.187 17.446,-2.048 25.042,-6.458Z" style="fill:#2e2d2c;fill-rule:nonzero;"/><path d="M1400.083,651.667l0,-259.667l-259.667,0l0,259.667l-259.625,0l0,259.625l259.625,0l0,259.625l259.667,0l0,-259.625l259.625,0l0,-259.625l-259.625,0Z" style="fill:#e83f4b;fill-rule:nonzero;"/></g></g></svg>