<?xml version="1.0" encoding="UTF-8" standalone="no"?>
<!-- Created with Inkscape (http://www.inkscape.org/) -->
<svg id="svg2" xmlns:rdf="http://www.w3.org/1999/02/22-rdf-syntax-ns#" xmlns="http://www.w3.org/2000/svg" height="353.5" width="353.5" version="1.0" xmlns:cc="http://creativecommons.org/ns#" xmlns:dc="http://purl.org/dc/elements/1.1/">
 <metadata id="metadata7">
  <rdf:RDF>
   <cc:Work rdf:about="">
    <dc:format>image/svg+xml</dc:format>
    <dc:type rdf:resource="http://purl.org/dc/dcmitype/StillImage"/>
    <dc:title/>
   </cc:Work>
  </rdf:RDF>
 </metadata>
 <g id="layer1" transform="translate(-531.91 -478.75)">
  <g id="g4150">
   <path id="path4138" d="m712.78 529.11c-3.2307-0.0937-9.6961-1.4912-9.5781 3.6875-1.0419 7.451-0.48865 15.83-1.1094 22.73-7.3863-3.4867-14.322-9.558-22.104-11.363-5.1326 1.5265-7.4362 10.412-1.3262 12.244 5.7821 3.6603 12.538 7.0069 17.803 10.635-6.8814 4.7236-16.242 7.3334-21.268 13.99-1.5014 5.4902 5.7489 11.554 10.184 6.7617 5.4144-2.9387 10.71-6.0834 16.088-9.0859-0.3528 16.178-0.84507 32.315-1.4062 48.484-4.4739-7.6868-8.8818-15.409-13.33-23.109-4.2401 1.5279-11.48 5.4894-8.2148 11.004 3.8214 6.3794 7.4821 12.885 11.195 19.34-14.493-7.7215-28.931-15.55-43.232-23.621 7.1925-4.3301 14.538-8.3966 21.785-12.633-1.596-4.5715-5.9257-12.643-11.652-7.7482-5.9385 3.1983-12.181 7.2464-17.819 10.027-0.12641-8.7905-0.0323-17.582-0.0625-26.373-4.8906-1.9316-12.72-0.8598-12.982 5.6563 0.20508 6.7133 0.38748 13.445 0.13671 20.193-7.4682-4.0038-14.936-8.0086-22.404-12.012-4.484 2.3802-7.8985 10.241-2.1094 13.156 5.734 3.6415 12.239 7.4137 17.387 11.17-6.5645 4.6405-15.502 7.1142-20.402 13.465-1.7148 5.6119 6.0009 11.578 10.354 6.6934 5.7932-3.0147 11.982-7.1326 17.369-9.6562 0.0968 8.973 0.0345 17.947 0.0527 26.92 4.8897 1.931 12.718 0.86037 12.982-5.6543-0.18608-6.5296-0.4047-13.074-0.14062-19.639 13.445 8.2808 26.906 16.536 40.316 24.873-8.6151 0.0676-17.23-0.0105-25.846 0.0234-1.927 4.8939-0.86784 12.778 5.6856 12.98 6.343-0.18705 14.309-0.82067 19.277-0.14258-13.33 8.3079-26.721 16.517-40.09 24.762-0.1035-8.4674-0.20719-16.935-0.31055-25.402-4.8815-1.9406-12.675-0.82365-12.912 5.6719 0.23703 7.0249 0.36006 14.074 0.13281 21.135-7.5922-4.4138-15.186-8.8244-22.777-13.24-3.6828 3.2239-7.3627 11.132-1.1348 13.785 5.6321 3.5825 12.068 6.829 17.363 10.311-6.8504 4.7846-16.061 7.6174-20.604 14.928-1.536 5.5717 5.9308 10.13 10.195 6.1128 5.7838-2.7332 11.336-5.9218 16.96-8.9624 0.10542 8.6178 0.21119 17.236 0.3164 25.854 4.885 1.9366 12.733 0.82928 12.91-5.7031-0.2202-6.9162-0.81753-14.632-0.0801-20.988 7.47 4.2162 14.837 8.6068 22.26 12.904 4.5405-2.4134 8.0619-10.34 2.1172-13.238-5.5062-3.3452-11.247-6.404-16.645-9.959 14.49-7.9888 29.058-15.836 43.656-23.625-4.4348 7.7545-8.9215 15.458-13.385 23.205 2.5538 3.9031 9.8028 8.1892 12.801 2.4453 3.9741-6.3592 7.753-12.849 11.5-19.348 0.46115 16.559 1.0205 33.116 1.3965 49.678-7.1092-3.4622-13.83-9.8659-21.719-10.629-5.223 1.5518-6.9844 10.594-0.76367 12.041 5.6749 3.4826 12.305 6.8606 17.416 10.344-6.9418 4.7323-16.119 7.7468-21.301 14.244-0.99153 5.1485 5.6496 11.83 10.021 6.8301 5.7571-2.9985 11.757-7.4775 17.217-9.7559 0.70018 8.3055-1.8 17.995 2.752 25.334 3.7611 2.8472 12.557 1.8123 10.581-4.7148 0.19033-6.8769-0.15107-14.651 0.7317-20.834 7.3279 3.7066 14.288 10.503 22.709 10.77 5.9216-2.1064 4.5223-11.1-1.1973-12.541-5.2116-3.3451-11.325-6.3484-16.109-9.6152 7.0361-4.6345 16.225-7.4976 21.533-13.992 0.81154-4.9537-4.8643-12.559-9.7695-7.1777-5.5724 3.2037-11.107 6.4735-16.748 9.5566 0.33468-15.933 0.94554-31.858 1.2949-47.791 4.3652 6.7294 7.2211 15.429 13.414 20.434 5.4384 1.5452 11.248-5.8534 6.7285-10.209-2.6435-4.8893-5.4462-9.69-8.2031-14.516 13.804 7.2885 27.573 14.635 41.268 22.1-7.2953 4.3643-14.816 8.5205-22.223 12.836 1.6348 4.279 5.8079 11.673 11.354 8.0586 6.2359-3.5829 12.364-7.4533 18.762-10.779 0.13772 9.0547 0.0191 18.111 0.0625 27.166 4.5528 2.3136 11.79 1.0364 12.045-5.0449 0.56815-6.8718-0.98763-15.339 0.36523-21.188 7.5001 3.4382 14.695 9.0291 22.496 10.932 4.6883-1.585 9.1861-10.183 2.1895-12.117-5.798-3.7052-12.684-7.3369-17.818-11.137 6.8821-4.5756 16.215-7.2026 20.754-14.336 1.1841-6.0806-7.2563-9.4075-11.337-5.3167-5.5667 2.7207-11.646 7.0435-16.675 9.0862-0.16682-8.9777-0.0321-17.957-0.084-26.936-4.5533-2.3104-11.788-1.0339-12.043 5.0469-0.40571 6.8653 0.4904 13.765 0.0586 20.646-14.837-9.0328-29.643-18.146-44.385-27.326 9.686-0.0883 19.372 0.002 29.059-0.0352 1.9299-4.8879 0.86454-12.728-5.6562-12.979-7.4444 0.28418-14.921 0.37129-22.404 0.17773 14.451-8.8804 28.858-17.833 43.391-26.58 0.10982 8.4033 0.001 16.807 0.0449 25.211 4.8936 1.9265 12.777 0.86765 12.98-5.6856-0.22164-6.8886-0.80552-14.548-0.10157-20.898 7.6303 4.304 15.182 8.7453 22.777 13.109 2.7853-3.2802 7.4868-9.6277 2.3672-13.066-5.8819-3.7164-13.51-7.1527-18.295-11.01 6.6806-4.9 15.797-7.8314 20.639-14.529 0.65747-4.8283-4.8258-12.025-9.651-7.1656-5.9465 3.0553-12.386 6.9949-18.068 9.5211-0.0928-8.6201-0.0335-17.241-0.0508-25.861-4.8896-1.9303-12.721-0.86211-12.982 5.6543 0.2372 7.0597 0.36243 14.144 0.13281 21.24-7.6718-4.431-15.344-8.8618-23.016-13.293-3.5555 3.1009-7.5624 10.556-1.7051 13.518 5.7692 3.1749 11.408 6.6661 17.168 9.8926-13.705 7.4164-29 16.129-41.867 22.348 3.4488-6.7684 9.5246-13.414 10.07-21.004-1.6208-5.1534-10.311-6.1819-11.85-0.42773-3.5461 5.3241-7.3098 12.917-10.254 16.883-0.56364-16.098-1.0207-32.19-1.2734-48.307 7.0985 3.4945 13.786 9.6345 21.574 10.783 4.7504-1.849 8.3114-10.716 1.1172-12.193-5.9294-3.4121-11.858-6.6944-17.654-10.279 7.5713-4.6409 15.345-8.9226 23.025-13.436-1.3902-4.1361-4.7386-11.491-10.307-8.5781-5.9454 3.5463-12.769 7.7597-18.457 10.338-0.39723-8.9572-0.62837-17.921-0.94531-26.881-0.82813 0.2474-1.6562 0.4948-2.4844 0.74219z" fill="#e2f0ff"/>
   <path id="path4175" d="m845.35 494.85c-47.345 0.85187-94.782 0.11345-142.16 0.31227-45.913 0.0807-91.905-0.20315-137.77 0.38109-11.733 4.3174-19.954 17.028-17.467 29.559 0.19881 90.875-0.41572 181.82 0.32078 272.65 3.9752 11.367 15.682 20.385 28.068 18.069 91.723 0.3908 183.54 0.32825 275.2-0.0335 11.271-4.398 20.256-16.323 17.823-28.775-0.19776-91.191 0.4051-182.44-0.31176-273.6-3.4676-9.9273-12.668-18.805-23.705-18.566zm-258.2 23.189c77.888 0.56712 155.86-0.35109 233.78 0.27109 7.529 0.38286 16.695-1.4422 21.674 5.7738 6.0919 7.6044 2.4338 18.079 3.6474 26.986 0.7669 72.996-0.12882 146-0.0205 219 0.354 7.2778-0.10622 15.782-7.1055 20.012-8.0897 5.1853-18.241 1.7571-27.264 2.8358-75.455 0.25323-150.95 0.65757-226.38-0.46859-10.67-0.15378-16.425-12.302-14.422-21.729 0.10423-80.246-0.20842-160.58 0.15625-240.77 2.7803-6.2574 8.5109-12.471 15.936-11.908z" fill="#003770"/>
   <path id="rect7469" fill="#7fbeff" d="m588.16 514.91c-11.127 0-20.094 8.9664-20.094 20.094v241.03c0 11.127 8.9664 20.094 20.094 20.094h241.03c11.127 0 20.062-8.9664 20.062-20.094v-241.03c0-11.127-8.9351-20.094-20.062-20.094h-241.03zm117.46 16.59h7.0625l0.84375 28.812 24.531-14.156 3.5625 6.125-25.375 14.656 25.375 14.625-3.5625 6.1562-24.156-13.938 1.8125 63.281 16.938-29.344 6.1562 3.5312-15.938 27.625 54.875-29.594-24.156-13.969 3.5625-6.1562 25.344 14.656v-29.281h7.0938v28.344l25.375-13.688 3.5312 6.125-24.531 15.125 24.531 14.156-3.5312 6.1562-25.375-14.656 0.0312 29.312-7.125-0.0312v-27.875l-55.938 34.469h35.75v7.0938h-36.719l56.719 34.969v-27.906h7.125l-0.0312 29.281 25.375-14.625 3.5312 6.125-24.531 14.188 24.531 15.125-3.5312 6.125-25.375-13.688v28.344h-7.0938v-29.281l-25.344 14.656-3.5625-6.1562 24.156-13.969-54.188-29.219 15.438 26.75-6.1562 3.5312-16.375-28.375-1.7812 62.281 24.156-13.938 3.5625 6.1562-25.375 14.625 25.375 14.656-3.5625 6.125-24.531-14.156-0.84375 28.812h-7.0625l-0.84375-28.812-24.531 14.156-3.5625-6.125 25.375-14.656-25.375-14.625 3.5625-6.1562 24.17 13.98-1.84-64.22-17.5 30.312-6.16-3.53 17.53-30.4-56.78 30.65 24.16 13.97-3.57 6.16-25.34-14.66v29.281h-7.0938v-28.344l-25.375 13.688-3.53-6.12 24.53-15.12-24.53-14.16 3.5312-6.1562 25.375 14.656-0.0312-29.312 7.125 0.0312v27.875l53.125-32.75h-32.625v-7.0938h32.969l-53.156-32.75v27.875h-7.125l0.0312-29.281-25.375 14.656-3.5312-6.1562 24.53-14.15-24.53-15.16 3.5312-6.0938 25.375 13.656v-28.312l7.0938-0.0312v29.312l25.344-14.656 3.5625 6.1562-24.156 13.938 56.312 30.406-17.375-30.125 6.1562-3.5312 16.938 29.312 1.8125-63.25-24.156 13.938-3.5625-6.1562 25.375-14.625-25.375-14.656 3.5625-6.125 24.531 14.156 0.84-28.81z"/>
   <path id="rect7473" fill="#7fbeff" d="m558.03 479.75c-13.909 0-25.125 11.216-25.125 25.125v301.28c0 13.909 11.216 25.094 25.125 25.094h301.28c13.909 0 25.094-11.185 25.094-25.094v-301.28c0-13.909-11.185-25.125-25.094-25.125h-301.28zm15.062 17.594h271.16c12.518 0 22.594 10.075 22.594 22.594v271.16c0 12.518-10.075 22.594-22.594 22.594h-271.16c-12.51 0.01-22.59-10.07-22.59-22.59v-271.16c0-12.518 10.075-22.594 22.594-22.594z"/>
  </g>
 </g>
</svg>
