<?xml version="1.0" encoding="UTF-8" standalone="no"?>
<!-- Created with Inkscape (http://www.inkscape.org/) -->
<svg id="svg2" xmlns:rdf="http://www.w3.org/1999/02/22-rdf-syntax-ns#" xmlns="http://www.w3.org/2000/svg" height="353.5" width="353.5" version="1.0" xmlns:cc="http://creativecommons.org/ns#" xmlns:dc="http://purl.org/dc/elements/1.1/">
 <metadata id="metadata7">
  <rdf:RDF>
   <cc:Work rdf:about="">
    <dc:format>image/svg+xml</dc:format>
    <dc:type rdf:resource="http://purl.org/dc/dcmitype/StillImage"/>
    <dc:title/>
   </cc:Work>
  </rdf:RDF>
 </metadata>
 <g id="layer1" transform="translate(-89,-478.75)">
  <g id="g4161">
   <path id="path4138" d="m269.65 536.68c-10.016 1.4222-13.24 13.003-15.69 21.254-3.9736 8.1797-3.8131 18.241-5.8942 26.314-11.683 0.0956-22.502 7.9635-28.016 17.91-3.1495 8.8253 2.431 17.627 4.4648 25.723-3.7008 2.3828-6.2728 6.2172-7.6738 10.34-6.5853-28.825-14.123-57.845-27.125-84.494-3.8583-5.7614-14.203-7.0537-17.162 0.26758-4.3757 9.288 2.7406 18.695 3.1238 28.041 14.172 64.231 26.236 129.47 28.21 195.26 1.392 8.0978 10.228 12.417 17.852 10.949 13.304-1.6432 26.762 0.15916 40.027 0.19336 8.0954 1.1748 13.846-6.1976 16.402-12.942 15.661-28.19 37.818-53.167 64.768-70.868 6.464-5.4219 2.3419-17.232-6.0742-17.359-9.0063 0.66403-17.137 5.5935-25.311 9.0818-1.9708 0.31998-6.8875 5.1895-5.5196 0.6721 0.50453-6.2946-0.1079-12.608 0.13086-18.908 7.301 2.9835 15.559 0.15022 20.678-5.5274 17.4-15.275 20.114-41.066 15.719-62.557-2.341-11.723-9.3753-25.301-22.318-27.291-4.8584-0.44045-8.2583 5.4538-12.73 4.6035-4.7958-3.2214-10.833-4.0675-16.484-3.4375-1.8747-16.222-5.9604-33.52-16.969-45.957-1.3458-0.74596-2.8569-1.2651-4.4082-1.2676zm-27.58 116.34c-0.91558 3.9709-0.1334 0.97465 0 0zm29.4 42.117c4.7102 6.2481 10.708 11.969 18.268 14.494-15.074 11.108-28.062 25.086-37.822 41.078-0.37208-12.54-1.546-25.822-1.4824-37.918 9.6119-1.5694 16.559-9.5612 21.037-17.654z" fill="#c7ffa1"/>
   <path id="path4163" d="m400.03 494.98c-91.568 0.67224-183.23-0.33938-274.78 0.51367-11.864 4.1347-21.668 16.163-20.085 29.152-0.16683 87.729-0.24937 175.47 0.0277 263.2-1.336 11.678 7.7304 22.585 18.214 26.688 10.399 2.8949 21.469 0.6128 32.129 1.4348 83.443 0.4223 166.95 0.0224 250.35-0.15157 13.14-4.367 22.408-18.134 20.507-32.033 0.65024-89.112 0.18469-178.29-0.0582-267.36-3.9544-11.024-13.773-21.747-26.303-21.443zm-180.73 22.447c56.309 0.15625 112.71-0.15391 168.96 0.42383 10.105 3.239 17.414 14.025 15.092 24.621-0.14068 78.767 0.28132 157.64-0.21094 236.34-3.3557 8.864-12.504 16.201-22.348 14.022-79.18-0.26869-158.4 0.93842-237.56-0.46714-11.086-1.4965-16.724-13.903-15.182-24.115 0.26065-78.465 0.0173-156.96 0.10196-235.43 3.2246-10.582 14.627-16.836 25.346-15.122 21.932-0.26661 43.866-0.22677 65.799-0.27061z" fill="#1b4400"/>
   <path id="rect6550" fill="#8fff45" d="m148 514.91c-12.666 0-22.844 10.209-22.844 22.875v235.47c0 12.666 10.178 22.875 22.844 22.875h235.47c12.666 0 22.875-10.209 22.875-22.875v-235.47c0-12.666-10.209-22.875-22.875-22.875h-235.47zm121.38 28.125c7.5922 15.455 14.065 31.651 13.5 52.531 7.2917-2.7263 14.355-6.4886 24.062 2.0312 6.2166-1.8436 11.091-4.0264 12.312-6.4688 19.959 2.1025 26.58 69.381-7.1875 80.062 0.00001-0.00002-6.0805-3.8018-15.531-6.6562 1.6075 10.291 1.9595 22.693 0.25 38.5-10.182-1.9886-18.978-10.931-26.406-26.656-6.0868 18.402-14.38 29.062-25.969 28.25-2.3282-20.541-2.6687-40.528 4.5625-58.344-0.54478-0.2199-1.071-0.4772-1.5938-0.75-0.008-0.004-0.0229 0.004-0.0312 0-13.309 0.0185-11.25 11.281-11.25 11.281 5.1326 21.557 8.2188 122.16 8.2188 122.16h-13.344c3.0796-28.743-6.161-111.89-7.1875-129.34-1.0265-17.451 12.313-16.406 12.312-16.406l0.0937-0.0312c-3.7566-7.1094-6.5684-16.513-8.7188-27.469 9.175-10.977 18.676-17.499 29.219-9.375-0.5322-20.944 5.0033-37.833 12.688-53.312zm-92.219 6.1875c35.433 53.15 53.156 230.31 53.156 230.31h-17.719c0-88.583-35.437-230.31-35.438-230.31zm178.03 141.5-0.84375 0.21875c-53.15 17.717-88.594 88.594-88.594 88.594h-17.719s19.422-71.326 107.16-88.812z"/>
   <path id="rect6554" fill="#8fff45" d="m118.59 479.75c-15.83 0-28.59 12.76-28.59 28.59v294.34c0 15.832 12.761 28.562 28.594 28.562h294.31c15.832 0 28.594-12.73 28.594-28.562v-294.34c0.01-15.83-12.75-28.59-28.58-28.59h-294.31zm14.688 17.594h264.91c14.249 0 25.719 11.47 25.719 25.719v264.91c0.00001 14.249-11.47 25.719-25.719 25.719h-264.91c-14.249 0.00003-25.719-11.47-25.719-25.719v-264.91c0-14.249 11.47-25.719 25.719-25.719z"/>
  </g>
 </g>
</svg>
