<?xml version="1.0" encoding="UTF-8" standalone="no"?>
<!-- Created with Inkscape (http://www.inkscape.org/) -->
<svg id="svg2" xmlns:rdf="http://www.w3.org/1999/02/22-rdf-syntax-ns#" xmlns="http://www.w3.org/2000/svg" height="354.91" width="354.91" version="1.0" xmlns:cc="http://creativecommons.org/ns#" xmlns:dc="http://purl.org/dc/elements/1.1/">
 <metadata id="metadata7">
  <rdf:RDF>
   <cc:Work rdf:about="">
    <dc:format>image/svg+xml</dc:format>
    <dc:type rdf:resource="http://purl.org/dc/dcmitype/StillImage"/>
    <dc:title/>
   </cc:Work>
  </rdf:RDF>
 </metadata>
 <g id="layer1" transform="translate(-531.22 -35.156)">
  <g id="g4709">
   <path id="path4687" d="m666.55 87.605c-19.369 29.646-39.382 60.17-47.822 95.006-1.2585 6.2657-2.0931 12.703-1.4434 19.094-9.2314-5.356-20.363-9.6378-31.031-7.75-5.5658 4.3517-0.11537 11.489 1.332 16.451 10.262 22.473 25.372 44.785 48.318 55.646 3.3779 1.3417 6.9265 2.2576 10.535 2.6953-13.982 12.772-28.498 24.955-43.422 36.611-1.4758 7.2094 6.8141 10.167 10.195 15.092 5.1107 2.909 6.8098-4.9089 9.4375-7.4375 9.8694-12.434 20.819-25.408 31.359-36.254 3.82 22.735 23.486 38.366 42.046 49.695 8.9095 5.1567 18.59 10.999 28.96 11.628 6.2681-2.5396 2.9977-10.342 2.5898-15.24-1.2186-6.3719-3.8487-12.396-7.1309-17.963 20.819 1.8007 40.271-8.2029 58.631-16.606 18.1-9.2059 36.283-19.033 52.051-31.83 3.0218-4.9625-3.6335-8.009-7.2324-9.5508-20.961-10.46-43.413-19.596-67.145-20.258 24.755-15.29 37.119-43.684 45.531-70.362 4.1638-13.477 7.1676-27.31 8.9923-41.296-3.4774-5.7836-10.738-1.8916-15.752-1.5855-33.446 6.5795-68.747 16.94-92.655 42.707-2.6261 2.9924-5.0282 6.1894-7.0801 9.6035-0.86269-29.062-14.619-55.561-27.359-80.998-0.63541 0.96745-1.2708 1.9349-1.9062 2.9023z" fill="#ffaea1"/>
   <path id="path4208" d="m845.99 51.332c-47.221 0.85589-94.535 0.11552-141.79 0.31445-46.429 0.07675-92.933-0.1977-139.32 0.375-11.827 4.2486-20 17.076-17.543 29.629 0.19876 91.246-0.41568 182.56 0.32078 273.76 3.9806 11.379 15.682 20.439 28.094 18.139 91.318 0.47942 182.67 0.59451 273.97 0.25136 12.57-3.1056 22.744-15.944 20.278-29.123-0.20305-91.569 0.41393-183.2-0.31756-274.73-3.5302-9.8835-12.658-18.803-23.693-18.619zm-256.5 22.522c48.017 0.77644 96.13 0.11049 144.18 0.33203 33.441 0.11082 66.958-0.22154 100.35 0.16602 9.0379 3.0324 15.051 12.694 12.809 22.145-0.0951 80.605 0.19018 161.28-0.14258 241.84-2.8604 7.9865-11.078 13.916-19.74 12.105-80.649 0.59161-161.33 0.57507-241.96-0.0781-10.276-0.5181-16.183-11.541-14.59-20.977 0.29879-80.828 0.0164-161.7 0.11524-242.55 2.7584-7.7294 10.711-13.365 18.977-12.984z" fill="#3f0e00"/>
   <path id="rect5548" fill="#b71900" d="m587.66 71.438c-11.18 0-20.16 8.984-20.16 20.156v242c0 11.172 8.9842 20.156 20.156 20.156h242c11.172 0 20.156-8.9842 20.156-20.156v-242c0-11.172-8.9842-20.156-20.156-20.156h-242zm80.281 19.031c27.988 49.439 26.454 78.816 24.5 89.219 15.931-54.703 115.93-65.82 116.25-65.5 0.31979 0.31977-11.34 99.677-65.75 115.91 10.422-1.998 39.65-3.6099 88.5 23.844 0 0-81.773 58.607-116.59 47.188 4.5323 7.4089 10.682 13.083 11.438 34.844-14.966-0.28001-72.139-31.116-70.156-65.844-10.104 10.942-40.683 44.771-40.219 48.938l-12.32-12.32c4.3653 0.5001 39.782-31.512 49.125-40.031-34.926 1.784-66.315-55.91-66.688-70.969 21.897 0.89248 27.612 7.0828 35.094 11.688-11.7-35.101 46.813-116.97 46.812-116.97zm75 139.62c-2.8913 0.5543-4.4062 1.125-4.4062 1.125 1.5105-0.3108 2.957-0.6927 4.4062-1.125zm-50.5-50.406c-0.41721 1.4326-0.79517 2.8508-1.0938 4.3438 0 0 0.55795-1.4913 1.0938-4.3438z"/>
   <path id="rect5552" fill="#b71900" d="m557.41 36.156c-13.965 0-25.188 11.222-25.188 25.188v302.5c0 13.965 11.222 25.219 25.188 25.219h302.5c13.965 0 25.219-11.254 25.219-25.219v-302.5c0-13.965-11.254-25.188-25.219-25.188h-302.5zm15.125 17.625h272.25c12.569 0 22.688 10.119 22.688 22.688v272.25c-0.00003 12.569-10.119 22.688-22.688 22.688h-272.25c-12.569-0.00001-22.688-10.119-22.688-22.688v-272.25c0-12.569 10.119-22.688 22.688-22.688z"/>
  </g>
 </g>
</svg>
